<svg width="50" height="53" viewBox="0 0 50 53" fill="none" xmlns="http://www.w3.org/2000/svg">
<g filter="url(#filter0_d_411_207)">
<path d="M40.7206 23.5331C40.5029 23.7516 40.2441 23.925 39.9593 24.0433C39.6744 24.1616 39.3689 24.2224 39.0605 24.2224C38.752 24.2224 38.4466 24.1616 38.1617 24.0433C37.8768 23.925 37.618 23.7516 37.4003 23.5331L27.3437 13.4765V42.1874C27.3437 42.809 27.0967 43.4051 26.6572 43.8447C26.2177 44.2842 25.6215 44.5311 24.9999 44.5311C24.3783 44.5311 23.7822 44.2842 23.3426 43.8447C22.9031 43.4051 22.6562 42.809 22.6562 42.1874V13.4765L12.5956 23.5331C12.1553 23.9734 11.5581 24.2208 10.9355 24.2208C10.3128 24.2208 9.71561 23.9734 9.27531 23.5331C8.83501 23.0928 8.58765 22.4956 8.58765 21.8729C8.58765 21.2503 8.83501 20.6531 9.27531 20.2128L23.3378 6.15029C23.5555 5.93179 23.8143 5.75842 24.0992 5.64012C24.3841 5.52183 24.6895 5.46094 24.998 5.46094C25.3064 5.46094 25.6119 5.52183 25.8968 5.64012C26.1816 5.75842 26.4404 5.93179 26.6581 6.15029L40.7206 20.2128C40.9391 20.4305 41.1125 20.6893 41.2308 20.9741C41.3491 21.259 41.41 21.5645 41.41 21.8729C41.41 22.1814 41.3491 22.4868 41.2308 22.7717C41.1125 23.0566 40.9391 23.3154 40.7206 23.5331Z" fill="#191919"/>
</g>
<defs>
<filter id="filter0_d_411_207" x="-4" y="0" width="58" height="58" filterUnits="userSpaceOnUse" color-interpolation-filters="sRGB">
<feFlood flood-opacity="0" result="BackgroundImageFix"/>
<feColorMatrix in="SourceAlpha" type="matrix" values="0 0 0 0 0 0 0 0 0 0 0 0 0 0 0 0 0 0 127 0" result="hardAlpha"/>
<feOffset dy="4"/>
<feGaussianBlur stdDeviation="2"/>
<feComposite in2="hardAlpha" operator="out"/>
<feColorMatrix type="matrix" values="0 0 0 0 0 0 0 0 0 0 0 0 0 0 0 0 0 0 0.25 0"/>
<feBlend mode="normal" in2="BackgroundImageFix" result="effect1_dropShadow_411_207"/>
<feBlend mode="normal" in="SourceGraphic" in2="effect1_dropShadow_411_207" result="shape"/>
</filter>
</defs>
</svg>
